<svg width="16" height="17" viewBox="0 0 16 17" version="1.1" xmlns="http://www.w3.org/2000/svg" xmlns:xlink="http://www.w3.org/1999/xlink">
    <title>add person</title>
    <desc>Created using Figma</desc>
    <g id="Canvas" transform="translate(-1456 -1715)">
        <g id="add person">
            <g id="Vector 4">
                <use xlink:href="#path0_stroke" transform="translate(1457 1723)" fill="#174DA1"/>
            </g>
            <g id="Ellipse 3">
                <use xlink:href="#path1_fill" transform="translate(1465 1725)" fill="#FFFFFF"/>
                <mask id="mask0_outline_ins">
                    <use xlink:href="#path1_fill" fill="white" transform="translate(1465 1725)"/>
                </mask>
                <g mask="url(#mask0_outline_ins)">
                    <use xlink:href="#path2_stroke_2x" transform="translate(1465 1725)" fill="#174DA1"/>
                </g>
            </g>
            <g id="Vector 5">
                <use xlink:href="#path3_stroke" transform="translate(1468.5 1727)" fill="#174DA1"/>
            </g>
            <g id="Vector 5">
                <use xlink:href="#path3_stroke" transform="matrix(6.12323e-17 1 -1 6.12323e-17 1470 1728.5)" fill="#174DA1"/>
            </g>
            <g id="Ellipse 2">
                <mask id="mask1_outline_ins">
                    <use xlink:href="#path4_fill" fill="white" transform="translate(1460 1715)"/>
                </mask>
                <g mask="url(#mask1_outline_ins)">
                    <use xlink:href="#path5_stroke_2x" transform="translate(1460 1715)" fill="#174DA1"/>
                </g>
            </g>
        </g>
    </g>
    <defs>
        <path id="path0_stroke" d="M 0 4.5L -0.488038 4.39129L -0.515651 4.51525L -0.480762 4.63736L 0 4.5ZM 13 4.5L 13.4808 4.63736L 13.5065 4.54727L 13.4979 4.45397L 13 4.5ZM 10 0L 10.2006 -0.457998L 9.89772 -0.590651L 9.65709 -0.363882L 10 0ZM 3 0L 3.34291 -0.363882L 3.09603 -0.596544L 2.7886 -0.45311L 3 0ZM -0.480762 4.63736C -0.212081 5.57774 0.783311 6.53798 2.00277 7.24505C 3.23457 7.95617 4.87792 8.49368 6.5 8.5L 6.5 7.5C 5.03636 7.50632 3.644 7.04383 2.50437 6.37995C 1.3524 5.71202 0.640652 4.92226 0.480762 4.36264L -0.480762 4.63736ZM 6.5 8.5C 8.12208 8.49368 9.76543 7.95617 10.9972 7.24505C 12.2167 6.53798 13.2121 5.57774 13.4808 4.63736L 12.5192 4.36264C 12.3593 4.92226 11.6476 5.71202 10.4956 6.37995C 9.356 7.04383 7.96364 7.50632 6.5 7.5L 6.5 8.5ZM 13.4979 4.45397C 13.3795 3.17338 13.2102 2.19549 12.7126 1.40782C 12.2051 0.604434 11.4034 0.0688222 10.2006 -0.457998L 9.79941 0.457998C 10.9397 0.957407 11.5197 1.39184 11.8672 1.94192C 12.2246 2.50771 12.3838 3.2667 12.5021 4.54603L 13.4979 4.45397ZM 10 0C 9.65709 -0.363882 9.65719 -0.363976 9.65728 -0.364065C 9.6573 -0.364087 9.65739 -0.36417 9.65744 -0.364215C 9.65742 -0.364193 9.6577 -0.364457 9.65765 -0.364413C 9.6577 -0.36446 9.65774 -0.3645 9.65765 -0.364411C 9.65717 -0.363962 9.6569 -0.363708 9.65595 -0.362838C 9.65349 -0.360555 9.65074 -0.35803 9.64592 -0.353663C 9.63507 -0.343833 9.62103 -0.331266 9.60012 -0.313134C 9.55577 -0.274621 9.49557 -0.223884 9.41263 -0.158837C 9.24121 -0.0240764 9.00987 0.144239 8.71179 0.319213C 8.10329 0.678914 7.35361 1.01021 6.5 1L 6.5 2C 7.55467 1.98979 8.55499 1.57109 9.21942 1.18079C 9.55781 0.980761 9.84367 0.774076 10.0303 0.627587C 10.1264 0.552009 10.2055 0.485559 10.2556 0.44204C 10.282 0.419157 10.304 0.399497 10.3174 0.387355C 10.3247 0.380735 10.3311 0.374838 10.3348 0.371444C 10.3369 0.369476 10.339 0.367578 10.34 0.366585C 10.3407 0.365954 10.3414 0.365276 10.3418 0.36496C 10.342 0.364734 10.3423 0.364464 10.3424 0.364352C 10.3425 0.364262 10.3426 0.364144 10.3427 0.364099C 10.3428 0.363988 10.3429 0.363882 10 0ZM 6.5 1C 5.64639 1.01021 4.89671 0.678914 4.28821 0.319213C 3.99013 0.144239 3.75879 -0.0240764 3.58737 -0.158837C 3.50443 -0.223884 3.44423 -0.274621 3.39988 -0.313134C 3.37897 -0.331266 3.36493 -0.343833 3.35408 -0.353663C 3.34926 -0.35803 3.34651 -0.360555 3.34405 -0.362838C 3.3431 -0.363708 3.34283 -0.363962 3.34235 -0.364411C 3.34226 -0.3645 3.3423 -0.36446 3.34235 -0.364413C 3.3423 -0.364457 3.34258 -0.364193 3.34256 -0.364215C 3.34261 -0.36417 3.3427 -0.364087 3.34272 -0.364065C 3.34281 -0.363976 3.34291 -0.363882 3 0C 2.65709 0.363882 2.6572 0.363988 2.65732 0.364099C 2.65736 0.364144 2.65749 0.364262 2.65759 0.364352C 2.65771 0.364464 2.65799 0.364734 2.65823 0.36496C 2.65857 0.365276 2.65929 0.365954 2.65997 0.366585C 2.66103 0.367578 2.66307 0.369476 2.6652 0.371444C 2.66887 0.374838 2.6753 0.380735 2.6826 0.387355C 2.696 0.399497 2.71802 0.419157 2.74436 0.44204C 2.79452 0.485559 2.87357 0.552009 2.96968 0.627587C 3.15634 0.774076 3.44219 0.980761 3.78058 1.18079C 4.44501 1.57109 5.44533 1.98979 6.5 2L 6.5 1ZM 2.7886 -0.45311C 1.70653 0.0517421 1.0064 0.583109 0.516846 1.37685C 0.0458828 2.14045 -0.202161 3.10793 -0.488038 4.39129L 0.488038 4.60871C 0.779444 3.30054 0.999308 2.49955 1.36798 1.9018C 1.71806 1.33419 2.22929 0.911326 3.2114 0.45311L 2.7886 -0.45311Z"/>
        <path id="path1_fill" d="M 7 3.5C 7 5.433 5.433 7 3.5 7C 1.567 7 0 5.433 0 3.5C 0 1.567 1.567 0 3.5 0C 5.433 0 7 1.567 7 3.5Z"/>
        <path id="path2_stroke_2x" d="M 6 3.5C 6 4.88071 4.88071 6 3.5 6L 3.5 8C 5.98528 8 8 5.98528 8 3.5L 6 3.5ZM 3.5 6C 2.11929 6 1 4.88071 1 3.5L -1 3.5C -1 5.98528 1.01472 8 3.5 8L 3.5 6ZM 1 3.5C 1 2.11929 2.11929 1 3.5 1L 3.5 -1C 1.01472 -1 -1 1.01472 -1 3.5L 1 3.5ZM 3.5 1C 4.88071 1 6 2.11929 6 3.5L 8 3.5C 8 1.01472 5.98528 -1 3.5 -1L 3.5 1Z"/>
        <path id="path3_stroke" d="M -0.5 0L -0.5 3L 0.5 3L 0.5 0L -0.5 0Z"/>
        <path id="path4_fill" d="M 7 4C 7 6.20914 5.433 8 3.5 8C 1.567 8 0 6.20914 0 4C 0 1.79086 1.567 0 3.5 0C 5.433 0 7 1.79086 7 4Z"/>
        <path id="path5_stroke_2x" d="M 6 4C 6 5.78646 4.75946 7 3.5 7L 3.5 9C 6.10653 9 8 6.63182 8 4L 6 4ZM 3.5 7C 2.24054 7 1 5.78646 1 4L -1 4C -1 6.63182 0.893466 9 3.5 9L 3.5 7ZM 1 4C 1 2.21354 2.24054 1 3.5 1L 3.5 -1C 0.893466 -1 -1 1.36818 -1 4L 1 4ZM 3.5 1C 4.75946 1 6 2.21354 6 4L 8 4C 8 1.36818 6.10653 -1 3.5 -1L 3.5 1Z"/>
    </defs>
</svg>
