<svg width="18" height="19" viewBox="0 0 18 19" version="1.1" xmlns="http://www.w3.org/2000/svg" xmlns:xlink="http://www.w3.org/1999/xlink">
    <title>Contacts</title>
    <desc>Created using Figma</desc>
    <g id="Canvas" transform="translate(4736 -1243)">
        <rect x="-4736" y="1243" width="18" height="19" fill="#E5E5E5"/>
        <clipPath id="clip-0" clip-rule="evenodd">
            <path d="M -4835 617L -2807 617L -2807 2245L -4835 2245L -4835 617Z" fill="#FFFFFF"/>
        </clipPath>
        <g id="Frame" clip-path="url(#clip-0)">
            <path d="M -4835 617L -2807 617L -2807 2245L -4835 2245L -4835 617Z" fill="#FFFFFF"/>
            <g id="menu">
                <g id="Rectangle 11" filter="url(#filter0_d)">
                    <use xlink:href="#path0_fill" transform="translate(-4767 1233)" fill="#FFFFFF"/>
                </g>
                <g id="contacts">
                    <g id="Contacts">
                        <g id="profile">
                            <g id="Vector 4">
                                <use xlink:href="#path1_fill" transform="translate(-4735 1250.42)" fill="#FFFFFF"/>
                                <use xlink:href="#path2_stroke" transform="translate(-4735 1250.42)" fill="#000000" fill-opacity="0.43"/>
                            </g>
                            <g id="Ellipse 2">
                                <use xlink:href="#path3_fill" transform="translate(-4732.2 1243)" fill="#FFFFFF"/>
                                <mask id="mask0_outline_ins">
                                    <use xlink:href="#path3_fill" fill="white" transform="translate(-4732.2 1243)"/>
                                </mask>
                                <g mask="url(#mask0_outline_ins)">
                                    <use xlink:href="#path4_stroke_2x" transform="translate(-4732.2 1243)" fill="#000000" fill-opacity="0.43"/>
                                </g>
                            </g>
                        </g>
                        <g id="profile">
                            <g id="Vector 4">
                                <use xlink:href="#path1_fill" transform="translate(-4731.12 1253.58)" fill="#FFFFFF"/>
                                <use xlink:href="#path2_stroke" transform="translate(-4731.12 1253.58)" fill="#000000" fill-opacity="0.43"/>
                            </g>
                            <g id="Ellipse 2">
                                <use xlink:href="#path3_fill" transform="translate(-4728.32 1246.15)" fill="#FFFFFF"/>
                                <mask id="mask1_outline_ins">
                                    <use xlink:href="#path3_fill" fill="white" transform="translate(-4728.32 1246.15)"/>
                                </mask>
                                <g mask="url(#mask1_outline_ins)">
                                    <use xlink:href="#path4_stroke_2x" transform="translate(-4728.32 1246.15)" fill="#000000" fill-opacity="0.43"/>
                                </g>
                            </g>
                        </g>
                    </g>
                </g>
                <g id="contacts act">
                    <g id="Contacts">
                        <g id="profile">
                            <g id="Vector 4">
                                <use xlink:href="#path1_fill" transform="translate(-4735 1250.42)" fill="#FFFFFF"/>
                                <use xlink:href="#path2_stroke" transform="translate(-4735 1250.42)" fill="#174DA1"/>
                            </g>
                            <g id="Ellipse 2">
                                <use xlink:href="#path3_fill" transform="translate(-4732.2 1243)" fill="#FFFFFF"/>
                                <mask id="mask2_outline_ins">
                                    <use xlink:href="#path3_fill" fill="white" transform="translate(-4732.2 1243)"/>
                                </mask>
                                <g mask="url(#mask2_outline_ins)">
                                    <use xlink:href="#path4_stroke_2x" transform="translate(-4732.2 1243)" fill="#174DA1"/>
                                </g>
                            </g>
                        </g>
                        <g id="profile">
                            <g id="Vector 4">
                                <use xlink:href="#path1_fill" transform="translate(-4731.12 1253.58)" fill="#FFFFFF"/>
                                <use xlink:href="#path2_stroke" transform="translate(-4731.12 1253.58)" fill="#174DA1"/>
                            </g>
                            <g id="Ellipse 2">
                                <use xlink:href="#path3_fill" transform="translate(-4728.32 1246.15)" fill="#FFFFFF"/>
                                <mask id="mask3_outline_ins">
                                    <use xlink:href="#path3_fill" fill="white" transform="translate(-4728.32 1246.15)"/>
                                </mask>
                                <g mask="url(#mask3_outline_ins)">
                                    <use xlink:href="#path4_stroke_2x" transform="translate(-4728.32 1246.15)" fill="#174DA1"/>
                                </g>
                            </g>
                        </g>
                    </g>
                </g>
            </g>
        </g>
    </g>
    <defs>
        <filter id="filter0_d" filterUnits="userSpaceOnUse" x="-4771" y="1225" width="248" height="64" color-interpolation-filters="sRGB">
            <feFlood flood-opacity="0" result="BackgroundImageFix"/>
            <feColorMatrix in="SourceAlpha" type="matrix" values="0 0 0 0 0 0 0 0 0 0 0 0 0 0 0 0 0 0 255 0"/>
            <feOffset dx="0" dy="-4"/>
            <feGaussianBlur stdDeviation="2"/>
            <feColorMatrix type="matrix" values="0 0 0 0 0 0 0 0 0 0 0 0 0 0 0 0 0 0 0.05 0"/>
            <feBlend mode="normal" in2="BackgroundImageFix" result="effect1_dropShadow"/>
            <feBlend mode="normal" in="SourceGraphic" in2="effect1_dropShadow" result="shape"/>
        </filter>
        <path id="path0_fill" d="M 0 0L 240 0L 240 56L 0 56L 0 0Z"/>
        <path id="path1_fill" d="M 6.05825 7.42268C 3.18225 7.42268 0.399445 5.56701 0 4.17526C 0.53805 1.77074 0.872217 0.893569 2.79612 0C 2.79612 0 4.27966 1.39175 6.05825 1.39175C 7.83685 1.39175 9.32039 0 9.32039 0C 11.5042 0.952171 11.8959 1.80008 12.1165 4.17526C 11.7171 5.56701 8.93426 7.42268 6.05825 7.42268Z"/>
        <path id="path2_stroke" d="M 0 4.17526L -0.487933 4.06607L -0.515791 4.19057L -0.480597 4.31319L 0 4.17526ZM 12.1165 4.17526L 12.5971 4.31319L 12.6231 4.22273L 12.6144 4.12902L 12.1165 4.17526ZM 9.32039 0L 9.52022 -0.45833L 9.21842 -0.589919L 8.9783 -0.364654L 9.32039 0ZM 2.79612 0L 3.13821 -0.364654L 2.89186 -0.595765L 2.5855 -0.453475L 2.79612 0ZM -0.480597 4.31319C -0.226112 5.19988 0.711974 6.09678 1.85046 6.75392C 3.00158 7.41527 4.54136 7.91642 6.05825 7.92268L 6.05825 6.92268C 4.69914 6.92894 3.40951 6.50226 2.35037 5.88784C 1.27859 5.2692 0.625557 4.54239 0.480597 4.03732L -0.480597 4.31319ZM 6.05825 7.92268C 7.57514 7.91642 9.11492 7.41527 10.266 6.75392C 11.4045 6.09678 12.3426 5.19988 12.5971 4.31319L 11.6359 4.03732C 11.4909 4.54239 10.8379 5.2692 9.76614 5.88784C 8.70699 6.50226 7.41737 6.92894 6.05825 6.92268L 6.05825 7.92268ZM 12.6144 4.12902C 12.504 2.9407 12.3458 2.02513 11.8768 1.28609C 11.398 0.53164 10.6432 0.0312781 9.52022 -0.45833L 9.12055 0.45833C 10.1815 0.920893 10.7143 1.32057 11.0325 1.82191C 11.3604 2.33866 11.5084 3.03464 11.6186 4.2215L 12.6144 4.12902ZM 9.32039 0C 8.9783 -0.364654 8.9784 -0.364749 8.97849 -0.364838C 8.97852 -0.364861 8.97861 -0.364945 8.97865 -0.364991C 8.97863 -0.364967 8.97894 -0.365253 8.97888 -0.365203C 8.97892 -0.365237 8.97901 -0.365322 8.97894 -0.365257C 8.97851 -0.36486 8.97832 -0.364682 8.97748 -0.363912C 8.97523 -0.361833 8.97279 -0.359606 8.96838 -0.355633C 8.95837 -0.346592 8.94555 -0.335177 8.92625 -0.318517C 8.88512 -0.282956 8.82966 -0.23642 8.75281 -0.176428C 8.59356 -0.0517911 8.37979 0.103083 8.10333 0.264589C 7.53804 0.597321 6.84742 0.901882 6.05825 0.891753L 6.05825 1.89175C 7.04768 1.88162 7.98813 1.49031 8.60926 1.12716C 8.926 0.940732 9.19428 0.747667 9.36877 0.61135C 9.4588 0.540866 9.53314 0.478672 9.58008 0.438121C 9.60483 0.416725 9.62562 0.398239 9.6382 0.386893C 9.64509 0.380673 9.65121 0.375084 9.65467 0.371897C 9.6567 0.370033 9.65866 0.368215 9.65967 0.367275C 9.66032 0.36667 9.66103 0.366013 9.66135 0.36571C 9.66159 0.365492 9.66187 0.365227 9.66199 0.365118C 9.66208 0.36503 9.6622 0.364914 9.66225 0.36487C 9.66237 0.36476 9.66248 0.364654 9.32039 0ZM 6.05825 0.891753C 5.26909 0.901882 4.57846 0.597321 4.01318 0.264589C 3.73671 0.103083 3.52294 -0.0517912 3.36369 -0.176428C 3.28685 -0.23642 3.23138 -0.282957 3.19025 -0.318517C 3.17095 -0.335177 3.15814 -0.346592 3.14812 -0.355633C 3.14371 -0.359606 3.14128 -0.361833 3.13902 -0.363912C 3.13818 -0.364682 3.13799 -0.36486 3.13756 -0.365257C 3.1375 -0.365322 3.13759 -0.365237 3.13762 -0.365203C 3.13757 -0.365253 3.13788 -0.364967 3.13785 -0.364991C 3.1379 -0.364946 3.13799 -0.364861 3.13801 -0.364838C 3.13811 -0.364749 3.13821 -0.364654 2.79612 0C 2.45402 0.364654 2.45414 0.36476 2.45425 0.36487C 2.4543 0.364914 2.45443 0.36503 2.45452 0.365118C 2.45464 0.365228 2.45492 0.365492 2.45515 0.36571C 2.45548 0.366013 2.45618 0.36667 2.45683 0.367275C 2.45784 0.368216 2.45981 0.370033 2.46183 0.371897C 2.4653 0.375085 2.47141 0.380673 2.4783 0.386893C 2.49089 0.398239 2.51168 0.416725 2.53642 0.438121C 2.58337 0.478672 2.6577 0.540866 2.74773 0.61135C 2.92222 0.747667 3.1905 0.940732 3.50725 1.12716C 4.12838 1.49031 5.06882 1.88162 6.05825 1.89175L 6.05825 0.891753ZM 2.5855 -0.453475C 1.57382 0.0164069 0.914648 0.513099 0.45333 1.25769C 0.0105762 1.97232 -0.221681 2.87621 -0.487933 4.06607L 0.487933 4.28444C 0.759731 3.06979 0.963583 2.33284 1.3034 1.78436C 1.62465 1.26584 2.09452 0.877162 3.00674 0.453475L 2.5855 -0.453475Z"/>
        <path id="path3_fill" d="M 6.52427 3.71134C 6.52427 5.76106 5.06376 7.42268 3.26214 7.42268C 1.46051 7.42268 0 5.76106 0 3.71134C 0 1.66162 1.46051 0 3.26214 0C 5.06376 0 6.52427 1.66162 6.52427 3.71134Z"/>
        <path id="path4_stroke_2x" d="M 5.52427 3.71134C 5.52427 5.33389 4.39417 6.42268 3.26214 6.42268L 3.26214 8.42268C 5.73336 8.42268 7.52427 6.18823 7.52427 3.71134L 5.52427 3.71134ZM 3.26214 6.42268C 2.13011 6.42268 1 5.33389 1 3.71134L -1 3.71134C -1 6.18823 0.79091 8.42268 3.26214 8.42268L 3.26214 6.42268ZM 1 3.71134C 1 2.0888 2.13011 1 3.26214 1L 3.26214 -1C 0.79091 -1 -1 1.23445 -1 3.71134L 1 3.71134ZM 3.26214 1C 4.39417 1 5.52427 2.0888 5.52427 3.71134L 7.52427 3.71134C 7.52427 1.23445 5.73336 -1 3.26214 -1L 3.26214 1Z"/>
    </defs>
</svg>
