<?xml version="1.0" encoding="utf-8"?>
<!-- Generator: Adobe Illustrator 21.0.0, SVG Export Plug-In . SVG Version: 6.00 Build 0)  -->
<svg version="1.1" id="Layer_1" xmlns="http://www.w3.org/2000/svg" xmlns:xlink="http://www.w3.org/1999/xlink" x="0px" y="0px"
	 viewBox="0 0 18 19" style="enable-background:new 0 0 18 19;" xml:space="preserve">
<style type="text/css">
	.st0{fill:#174DA1;}
</style>
<path class="st0" d="M7.1,8.3C7.1,8.3,7.1,8.3,7.1,8.3C6.3,8.3,5.6,8,5,7.7C4.7,7.5,4.5,7.4,4.4,7.2C4.3,7.2,4.2,7.1,4.2,7.1
	c0,0,0,0,0,0c0,0,0,0,0,0c0,0,0,0,0,0l0,0L3.9,6.8L3.6,7c-1,0.5-1.7,1-2.1,1.7C1,9.4,0.8,10.3,0.5,11.5l0,0.1l0,0.1
	c0.3,0.9,1.2,1.8,2.3,2.4c0.2,0.1,0.4,0.2,0.6,0.3c0.1-0.4,0.2-0.7,0.3-1c-0.1-0.1-0.2-0.1-0.3-0.2c-1-0.6-1.6-1.3-1.8-1.8
	C1.8,10.4,2,9.7,2.3,9.2C2.6,8.7,3,8.4,3.7,8c0,0,0,0,0,0c0.2,0.1,0.4,0.3,0.8,0.5c0.6,0.4,1.6,0.8,2.6,0.8c0.2,0,0.4,0,0.6-0.1
	C7.5,9,7.3,8.7,7.1,8.3z"/>
<path class="st0" d="M17.5,14.7c-0.1-1.2-0.3-2.1-0.7-2.8c-0.5-0.8-1.2-1.3-2.4-1.7L14.1,10l-0.2,0.2c0,0,0,0,0,0c0,0,0,0,0,0l0,0
	l0,0l0,0c0,0,0,0,0,0c0,0,0,0,0,0c0,0,0,0,0,0c0,0-0.1,0.1-0.2,0.1c-0.2,0.1-0.4,0.3-0.6,0.4c-0.6,0.3-1.3,0.6-2,0.6
	c-0.8,0-1.5-0.3-2-0.6c-0.3-0.2-0.5-0.3-0.6-0.4c-0.1-0.1-0.1-0.1-0.2-0.1c0,0,0,0,0,0c0,0,0,0,0,0c0,0,0,0,0,0l0,0L7.8,10l-0.3,0.1
	l0.2,0.5l0,0l-0.2-0.5c-1,0.5-1.7,1-2.1,1.7c-0.4,0.7-0.7,1.6-0.9,2.8l0,0.1l0,0.1c0.3,0.9,1.2,1.8,2.3,2.4c1.2,0.7,2.7,1.2,4.2,1.2
	c1.5,0,3.1-0.5,4.2-1.2c1.1-0.7,2.1-1.6,2.3-2.4L17.5,14.7L17.5,14.7z M14.7,16.5c-1.1,0.6-2.3,1-3.7,1c-1.4,0-2.6-0.4-3.7-1
	c-1-0.6-1.6-1.3-1.8-1.8c0.3-1.1,0.5-1.8,0.8-2.3c0.3-0.5,0.7-0.8,1.4-1.2c0,0,0,0,0,0c0.2,0.1,0.4,0.3,0.8,0.5
	c0.6,0.4,1.6,0.8,2.6,0.8c1,0,1.9-0.4,2.6-0.8c0.3-0.2,0.6-0.4,0.8-0.5c0,0,0,0,0,0c0.9,0.4,1.4,0.8,1.6,1.2
	c0.3,0.5,0.5,1.2,0.6,2.3C16.3,15.2,15.7,15.9,14.7,16.5z"/>
<path class="st0" d="M11,4.2c1.3,0,2.3,1.2,2.3,2.7S12.2,9.6,11,9.6S8.7,8.4,8.7,6.9S9.7,4.2,11,4.2 M11,3.2c-1.8,0-3.3,1.7-3.3,3.7
	s1.5,3.7,3.3,3.7s3.3-1.7,3.3-3.7S12.8,3.2,11,3.2L11,3.2z"/>
<path class="st0" d="M7,1.2c0.9,0,1.7,0.7,2.1,1.6C9.4,2.6,9.6,2.5,10,2.4C9.5,1.1,8.3,0.2,7,0.2c-1.8,0-3.3,1.7-3.3,3.7
	c0,2,1.4,3.6,3.1,3.7c0-0.1,0-0.2,0-0.3c0-0.2,0-0.5,0.1-0.7C5.7,6.5,4.7,5.4,4.7,3.9C4.7,2.4,5.7,1.2,7,1.2z"/>
</svg>
