<svg width="16" height="18" viewBox="0 0 16 18" version="1.1" xmlns="http://www.w3.org/2000/svg" xmlns:xlink="http://www.w3.org/1999/xlink">
    <title>copy</title>
    <desc>Created using Figma</desc>
    <g id="Canvas" transform="translate(-4279 -2594)">
        <g id="copy">
            <g id="Rectangle 20">
                <mask id="mask0_outline_ins">
                    <use xlink:href="#path0_fill" fill="white" transform="translate(4283.75 2598.7)"/>
                </mask>
                <g mask="url(#mask0_outline_ins)">
                    <use xlink:href="#path1_stroke_2x" transform="translate(4283.75 2598.7)" fill="#174DA1"/>
                </g>
            </g>
            <g id="Rectangle 20">
                <use xlink:href="#path2_stroke" transform="translate(4280 2595)" fill="#174DA1"/>
            </g>
        </g>
    </g>
    <defs>
        <path id="path0_fill" d="M 0 0L 11.25 0L 11.25 13.3043L 0 13.3043L 0 0Z"/>
        <path id="path1_stroke_2x" d="M 0 0L 0 -1L -1 -1L -1 0L 0 0ZM 11.25 0L 12.25 0L 12.25 -1L 11.25 -1L 11.25 0ZM 11.25 13.3043L 11.25 14.3043L 12.25 14.3043L 12.25 13.3043L 11.25 13.3043ZM 0 13.3043L -1 13.3043L -1 14.3043L 0 14.3043L 0 13.3043ZM 0 1L 11.25 1L 11.25 -1L 0 -1L 0 1ZM 10.25 0L 10.25 13.3043L 12.25 13.3043L 12.25 0L 10.25 0ZM 11.25 12.3043L 0 12.3043L 0 14.3043L 11.25 14.3043L 11.25 12.3043ZM 1 13.3043L 1 0L -1 0L -1 13.3043L 1 13.3043Z"/>
        <path id="path2_stroke" d="M 0 0L 0 -0.5L -0.5 -0.5L -0.5 0L 0 0ZM 11.25 0L 11.75 0L 11.75 -0.5L 11.25 -0.5L 11.25 0ZM 0 13.3043L -0.5 13.3043L -0.5 13.8043L 0 13.8043L 0 13.3043ZM 0 0.5L 11.25 0.5L 11.25 -0.5L 0 -0.5L 0 0.5ZM 0.5 13.3043L 0.5 0L -0.5 0L -0.5 13.3043L 0.5 13.3043ZM 10.75 0L 10.75 2.21739L 11.75 2.21739L 11.75 0L 10.75 0ZM 2.25 12.8043L 0 12.8043L 0 13.8043L 2.25 13.8043L 2.25 12.8043Z"/>
    </defs>
</svg>
