<?xml version="1.0" encoding="utf-8"?>
<!-- Generator: Adobe Illustrator 21.0.0, SVG Export Plug-In . SVG Version: 6.00 Build 0)  -->
<svg version="1.1" id="Layer_1" xmlns="http://www.w3.org/2000/svg" xmlns:xlink="http://www.w3.org/1999/xlink" x="0px" y="0px"
	 viewBox="0 0 22 24" style="enable-background:new 0 0 22 24;" xml:space="preserve">
<style type="text/css">
	.st0{fill:#174DA1;}
</style>
<title>add person</title>
<desc>Created using Figma</desc>
<path class="st0" d="M11.7,21.9C11.2,22,10.6,22,10.1,22C8,22,6,21.3,4.4,20.4s-2.6-2-2.9-2.9c0.4-1.8,0.7-2.9,1.2-3.7
	s1.2-1.4,2.4-2c0.1,0,0.8,0.6,1.3,0.9c0.9,0.5,2.3,1.1,3.7,1.1s2.8-0.6,3.7-1.1c0.5-0.3,0.9-0.6,1.1-0.8c0.1-0.1,0.1-0.1,0.2-0.1
	c0.9,0.4,1.6,0.9,2.1,1.3c0.5,0,1,0.1,1.5,0.2l0,0c-0.7-1.1-1.8-1.8-3.4-2.6L15,10.6l-0.2,0.2l0,0l0,0l0,0c0,0,0,0-0.1,0.1
	s-0.2,0.1-0.3,0.2c-0.2,0.2-0.6,0.4-1,0.7c-0.9,0.5-2,1-3.2,1s-2.3-0.5-3.2-1c-0.4-0.3-1.4-1-1.4-1l0,0l0,0l-0.2-0.2L5,10.8
	c-1.5,0.7-2.4,1.4-3.1,2.5c-0.6,1-1,2.4-1.4,4.2v0.1v0.1c0.4,1.2,1.7,2.6,3.4,3.6s4,1.7,6.2,1.7c0.7,0,1.5-0.1,2.2-0.2
	C12.1,22.6,11.9,22.3,11.7,21.9z"/>
<polygon class="st0" points="19.2,18.6 15,18.6 15,19.6 19.2,19.6 "/>
<path class="st0" d="M10.1,1C12.3,1,14,3.1,14,5.6s-1.8,4.6-3.9,4.6s-3.9-2-3.9-4.6S7.9,1,10.1,1 M10.1,0C7.4,0,5.2,2.5,5.2,5.6
	s2.2,5.6,4.9,5.6S15,8.7,15,5.6S12.8,0,10.1,0L10.1,0z"/>
<path class="st0" d="M17.1,15.2c2.1,0,3.9,1.7,3.9,3.9S19.3,23,17.1,23s-3.9-1.7-3.9-3.9S15,15.2,17.1,15.2 M17.1,14.2
	c-2.7,0-4.9,2.2-4.9,4.9s2.2,4.9,4.9,4.9s4.9-2.2,4.9-4.9S19.8,14.2,17.1,14.2L17.1,14.2z"/>
</svg>
