<svg width="6" height="9" viewBox="0 0 6 9" version="1.1" xmlns="http://www.w3.org/2000/svg" xmlns:xlink="http://www.w3.org/1999/xlink">
    <title>Shape</title>
    <desc>Created using Figma</desc>
    <g id="Canvas" transform="translate(1093 -5506)">
        <g id="Shape">
            <use xlink:href="#path0_fill" transform="matrix(1 0 0 -1 -1092.92 5514.43)" fill="#000000" fill-opacity="0.43"/>
        </g>
    </g>
    <defs>
        <path id="path0_fill" fill-rule="evenodd" d="M 2.91667 8.42912C 1.29167 8.42912 0 7.12261 0 5.47893C 0 3.28736 2.91667 0 2.91667 0C 2.91667 0 5.83333 3.24521 5.83333 5.47893C 5.83333 7.12261 4.54167 8.42912 2.91667 8.42912ZM 2.91667 4.42529C 2.33333 4.42529 1.875 4.88889 1.875 5.47893C 1.875 6.06897 2.33333 6.53257 2.91667 6.53257C 3.5 6.53257 3.95833 6.06897 3.95833 5.47893C 3.95833 4.88889 3.5 4.42529 2.91667 4.42529Z"/>
    </defs>
</svg>
