<?xml version="1.0" encoding="utf-8"?>
<!-- Generator: Adobe Illustrator 21.0.0, SVG Export Plug-In . SVG Version: 6.00 Build 0)  -->
<svg version="1.1" id="Layer_1" xmlns="http://www.w3.org/2000/svg" xmlns:xlink="http://www.w3.org/1999/xlink" x="0px" y="0px"
	 viewBox="0 0 17 20" style="enable-background:new 0 0 17 20;" xml:space="preserve">
<style type="text/css">
	.st0{fill:#174DA1;}
</style>
<path id="path2_stroke" class="st0" d="M4,12.5h9v-1H4V12.5z M4,15.5h9v-1H4V15.5z"/>
<path id="path3_fill" class="st0" d="M8.4,3.2c0.3,0,0.6,0.1,0.9,0.2C9.5,3.5,9.8,3.6,10,3.9L9.4,4.4C9.3,4.3,9.1,4.1,9,4.1
	C8.8,4,8.6,3.9,8.4,3.9v1.9l0,0C8.6,5.9,8.8,5.9,9,6c0.2,0.1,0.4,0.2,0.6,0.3C9.8,6.4,9.9,6.6,10,6.8c0.1,0.2,0.1,0.4,0.1,0.7
	c0,0.2,0,0.5-0.1,0.7C9.9,8.3,9.8,8.5,9.6,8.6C9.5,8.8,9.3,8.9,9.1,9C8.8,9,8.6,9.1,8.4,9.1v0.6H8V9.1C7.6,9.1,7.3,9,7,8.9
	C6.7,8.8,6.4,8.6,6.2,8.3l0.6-0.6C6.9,8,7.1,8.1,7.3,8.2C7.5,8.4,7.7,8.4,8,8.4v-2C7.7,6.4,7.5,6.3,7.3,6.3C7.2,6.2,7,6.1,6.8,5.9
	C6.7,5.8,6.6,5.7,6.5,5.5C6.4,5.3,6.3,5.1,6.3,4.8c0-0.2,0-0.4,0.1-0.6C6.6,4,6.7,3.9,6.8,3.7C7,3.6,7.2,3.5,7.4,3.4
	C7.5,3.3,7.8,3.3,8,3.2V2.7h0.4V3.2z M8,3.9C7.7,4,7.5,4.1,7.3,4.2C7.2,4.4,7.1,4.6,7.1,4.8c0,0.1,0,0.2,0.1,0.3
	c0,0.1,0.1,0.2,0.2,0.2c0.1,0.1,0.2,0.1,0.3,0.2c0.1,0,0.2,0.1,0.3,0.1V3.9z M8.4,8.4c0.1,0,0.3,0,0.4-0.1c0.1,0,0.2-0.1,0.3-0.2
	C9.2,8.1,9.2,8,9.3,7.9c0.1-0.1,0.1-0.2,0.1-0.4s0-0.3-0.1-0.4C9.2,7,9.1,6.9,9.1,6.9C9,6.8,8.9,6.7,8.8,6.7c-0.1,0-0.2-0.1-0.4-0.1
	V8.4z"/>
<path class="st0" d="M12.8,1.1l1.7,0.8l0.4,0.2l0.4-0.2L16,1.6v16.8l-0.7-0.3l-0.4-0.2l-0.4,0.2l-1.7,0.8l-1.7-0.8l-0.4-0.2
	l-0.4,0.2l-1.7,0.8l-1.7-0.8l-0.4-0.2l-0.4,0.2l-1.7,0.8l-1.7-0.8l-0.4-0.2l-0.4,0.2L1,18.4V1.6l0.7,0.3l0.4,0.2l0.4-0.2l1.7-0.8
	l1.7,0.8l0.4,0.2l0.4-0.2l1.7-0.8l1.7,0.8l0.4,0.2l0.4-0.2L12.8,1.1 M17,0l-2.1,1l-2.1-1l-2.1,1L8.5,0L6.4,1L4.3,0L2.1,1L0,0v20
	l2.1-1l2.1,1l2.1-1l2.1,1l2.1-1l2.1,1l2.1-1l2.1,1V0L17,0z"/>
</svg>
