<svg width="17" height="20" viewBox="0 0 17 20" version="1.1" xmlns="http://www.w3.org/2000/svg" xmlns:xlink="http://www.w3.org/1999/xlink">
    <title>invoices</title>
    <desc>Created using Figma</desc>
    <g id="Canvas" transform="translate(4576 -1242)">
        <rect x="-4576" y="1242" width="17" height="20" fill="#E5E5E5"/>
        <clipPath id="clip-0" clip-rule="evenodd">
            <path d="M -4835 617L -2807 617L -2807 2245L -4835 2245L -4835 617Z" fill="#FFFFFF"/>
        </clipPath>
        <g id="Frame" clip-path="url(#clip-0)">
            <path d="M -4835 617L -2807 617L -2807 2245L -4835 2245L -4835 617Z" fill="#FFFFFF"/>
            <g id="menu">
                <g id="Rectangle 11" filter="url(#filter0_d)">
                    <use xlink:href="#path0_fill" transform="translate(-4767 1233)" fill="#FFFFFF"/>
                </g>
                <g id="invoices">
                    <g id="invoices">
                        <g id="Rectangle 12">
                            <mask id="mask0_outline_ins">
                                <use xlink:href="#path1_fill" fill="white" transform="translate(-4576 1242)"/>
                            </mask>
                            <g mask="url(#mask0_outline_ins)">
                                <use xlink:href="#path2_stroke_2x" transform="translate(-4576 1242)" fill="#000000" fill-opacity="0.87"/>
                            </g>
                        </g>
                        <g id="Vector 7">
                            <use xlink:href="#path3_stroke" transform="translate(-4572 1254)" fill="#000000" fill-opacity="0.87"/>
                        </g>
                        <g id="$">
                            <use xlink:href="#path4_fill" transform="translate(-4570 1243)" fill="#000000" fill-opacity="0.87"/>
                        </g>
                    </g>
                </g>
            </g>
        </g>
    </g>
    <defs>
        <filter id="filter0_d" filterUnits="userSpaceOnUse" x="-4771" y="1225" width="248" height="64" color-interpolation-filters="sRGB">
            <feFlood flood-opacity="0" result="BackgroundImageFix"/>
            <feColorMatrix in="SourceAlpha" type="matrix" values="0 0 0 0 0 0 0 0 0 0 0 0 0 0 0 0 0 0 255 0"/>
            <feOffset dx="0" dy="-4"/>
            <feGaussianBlur stdDeviation="2"/>
            <feColorMatrix type="matrix" values="0 0 0 0 0 0 0 0 0 0 0 0 0 0 0 0 0 0 0.05 0"/>
            <feBlend mode="normal" in2="BackgroundImageFix" result="effect1_dropShadow"/>
            <feBlend mode="normal" in="SourceGraphic" in2="effect1_dropShadow" result="shape"/>
        </filter>
        <path id="path0_fill" d="M 0 0L 240 0L 240 56L 0 56L 0 0Z"/>
        <path id="path1_fill" d="M 0 0L 2.02381 0.97561L 4.25 0L 6.47619 0.97561L 8.5 0L 10.5238 0.97561L 12.75 0L 14.9762 0.97561L 17 0L 17 14.6341L 17 20L 14.9762 19.0244L 12.75 20L 10.9286 19.0244L 8.5 20L 6.47619 19.0244L 4.25 20L 2.02381 19.0244L 0 20L 0 0Z"/>
        <path id="path2_stroke_2x" d="M 0 0L 0.434243 -0.900796L -1 -1.5922L -1 0L 0 0ZM 17 0L 18 0L 18 -1.5922L 16.5658 -0.900796L 17 0ZM 17 20L 16.5658 20.9008L 18 21.5922L 18 20L 17 20ZM 0 20L -1 20L -1 21.5922L 0.434243 20.9008L 0 20ZM 12.75 20L 12.2778 20.8815L 12.7063 21.111L 13.1514 20.9159L 12.75 20ZM 14.9762 19.0244L 15.4104 18.1236L 14.9961 17.9239L 14.5748 18.1085L 14.9762 19.0244ZM 2.02381 19.0244L 2.4252 18.1085L 2.00391 17.9239L 1.58957 18.1236L 2.02381 19.0244ZM 4.25 20L 3.84861 20.9159L 4.25 21.0918L 4.65139 20.9159L 4.25 20ZM 6.47619 19.0244L 6.91043 18.1236L 6.49609 17.9239L 6.0748 18.1085L 6.47619 19.0244ZM 8.5 20L 8.06576 20.9008L 8.46328 21.0924L 8.87277 20.9279L 8.5 20ZM 10.9286 19.0244L 11.4007 18.1429L 10.9891 17.9224L 10.5558 18.0965L 10.9286 19.0244ZM 2.02381 0.97561L 1.58957 1.87641L 2.00391 2.07614L 2.4252 1.89152L 2.02381 0.97561ZM 4.25 0L 4.65139 -0.915908L 4.25 -1.09181L 3.84861 -0.915908L 4.25 0ZM 6.47619 0.97561L 6.0748 1.89152L 6.49609 2.07614L 6.91043 1.87641L 6.47619 0.97561ZM 8.5 0L 8.93424 -0.900796L 8.5 -1.11013L 8.06576 -0.900796L 8.5 0ZM 10.5238 0.97561L 10.0896 1.87641L 10.5039 2.07614L 10.9252 1.89152L 10.5238 0.97561ZM 12.75 0L 13.1514 -0.915908L 12.75 -1.09181L 12.3486 -0.915908L 12.75 0ZM 14.9762 0.97561L 14.5748 1.89152L 14.9961 2.07614L 15.4104 1.87641L 14.9762 0.97561ZM 1 20L 1 0L -1 0L -1 20L 1 20ZM 16 0L 16 14.6341L 18 14.6341L 18 0L 16 0ZM 16 14.6341L 16 20L 18 20L 18 14.6341L 16 14.6341ZM 17.4342 19.0992L 15.4104 18.1236L 14.5419 19.9252L 16.5658 20.9008L 17.4342 19.0992ZM 14.5748 18.1085L 12.3486 19.0841L 13.1514 20.9159L 15.3776 19.9403L 14.5748 18.1085ZM 1.58957 18.1236L -0.434243 19.0992L 0.434243 20.9008L 2.45805 19.9252L 1.58957 18.1236ZM 4.65139 19.0841L 2.4252 18.1085L 1.62242 19.9403L 3.84861 20.9159L 4.65139 19.0841ZM 6.0748 18.1085L 3.84861 19.0841L 4.65139 20.9159L 6.87758 19.9403L 6.0748 18.1085ZM 8.93424 19.0992L 6.91043 18.1236L 6.04195 19.9252L 8.06576 20.9008L 8.93424 19.0992ZM 13.2222 19.1185L 11.4007 18.1429L 10.4564 19.9059L 12.2778 20.8815L 13.2222 19.1185ZM 10.5558 18.0965L 8.12723 19.0721L 8.87277 20.9279L 11.3013 19.9523L 10.5558 18.0965ZM -0.434243 0.900796L 1.58957 1.87641L 2.45805 0.074814L 0.434243 -0.900796L -0.434243 0.900796ZM 2.4252 1.89152L 4.65139 0.915908L 3.84861 -0.915908L 1.62242 0.0597021L 2.4252 1.89152ZM 3.84861 0.915908L 6.0748 1.89152L 6.87758 0.0597021L 4.65139 -0.915908L 3.84861 0.915908ZM 6.91043 1.87641L 8.93424 0.900796L 8.06576 -0.900796L 6.04195 0.074814L 6.91043 1.87641ZM 8.06576 0.900796L 10.0896 1.87641L 10.9581 0.074814L 8.93424 -0.900796L 8.06576 0.900796ZM 10.9252 1.89152L 13.1514 0.915908L 12.3486 -0.915908L 10.1224 0.0597021L 10.9252 1.89152ZM 12.3486 0.915908L 14.5748 1.89152L 15.3776 0.0597021L 13.1514 -0.915908L 12.3486 0.915908ZM 15.4104 1.87641L 17.4342 0.900796L 16.5658 -0.900796L 14.5419 0.074814L 15.4104 1.87641Z"/>
        <path id="path3_stroke" d="M 0 0.5L 9 0.5L 9 -0.5L 0 -0.5L 0 0.5ZM 0 3.5L 9 3.5L 9 2.5L 0 2.5L 0 3.5Z"/>
        <path id="path4_fill" d="M 2.4 2.24C 2.69333 2.24 2.97867 2.29067 3.256 2.392C 3.53867 2.488 3.78133 2.64267 3.984 2.856L 3.408 3.416C 3.28533 3.26133 3.136 3.14133 2.96 3.056C 2.78933 2.96533 2.60267 2.91733 2.4 2.912L 2.4 4.8L 2.384 4.808C 2.61333 4.872 2.832 4.944 3.04 5.024C 3.25333 5.09867 3.44 5.19733 3.6 5.32C 3.76 5.43733 3.888 5.58667 3.984 5.768C 4.08 5.94933 4.128 6.176 4.128 6.448C 4.128 6.69333 4.08 6.91467 3.984 7.112C 3.89333 7.30933 3.768 7.48 3.608 7.624C 3.45333 7.76267 3.26933 7.872 3.056 7.952C 2.848 8.032 2.62933 8.08 2.4 8.096L 2.4 8.672L 1.968 8.672L 1.968 8.096C 1.616 8.096 1.288 8.04 0.984 7.928C 0.685333 7.81067 0.426667 7.61067 0.208 7.328L 0.824 6.776C 0.946667 6.97867 1.112 7.136 1.32 7.248C 1.528 7.35467 1.744 7.41333 1.968 7.424L 1.968 5.456C 1.74933 5.40267 1.54133 5.336 1.344 5.256C 1.152 5.17067 0.978667 5.064 0.824 4.936C 0.674667 4.808 0.554667 4.65333 0.464 4.472C 0.378667 4.29067 0.336 4.072 0.336 3.816C 0.336 3.58667 0.381333 3.38133 0.472 3.2C 0.562667 3.01333 0.682667 2.85333 0.832 2.72C 0.981333 2.58133 1.15467 2.472 1.352 2.392C 1.54933 2.30667 1.75467 2.256 1.968 2.24L 1.968 1.664L 2.4 1.664L 2.4 2.24ZM 1.968 2.912C 1.712 2.95467 1.504 3.05333 1.344 3.208C 1.184 3.35733 1.104 3.56 1.104 3.816C 1.104 3.944 1.128 4.056 1.176 4.152C 1.224 4.24267 1.288 4.32267 1.368 4.392C 1.448 4.46133 1.53867 4.52 1.64 4.568C 1.74667 4.616 1.856 4.656 1.968 4.688L 1.968 2.912ZM 2.4 7.424C 2.53333 7.408 2.656 7.376 2.768 7.328C 2.88533 7.28 2.98667 7.216 3.072 7.136C 3.16267 7.056 3.232 6.96267 3.28 6.856C 3.33333 6.744 3.36 6.61867 3.36 6.48C 3.36 6.34133 3.33067 6.224 3.272 6.128C 3.21867 6.02667 3.14667 5.94133 3.056 5.872C 2.97067 5.80267 2.86933 5.744 2.752 5.696C 2.63467 5.648 2.51733 5.60533 2.4 5.568L 2.4 7.424Z"/>
    </defs>
</svg>
