<?xml version="1.0" encoding="utf-8"?>
<!-- Generator: Adobe Illustrator 21.0.0, SVG Export Plug-In . SVG Version: 6.00 Build 0)  -->
<svg version="1.1" id="Layer_1" xmlns="http://www.w3.org/2000/svg" xmlns:xlink="http://www.w3.org/1999/xlink" x="0px" y="0px"
	 viewBox="0 0 21 23" style="enable-background:new 0 0 21 23;" xml:space="preserve">
<style type="text/css">
	.st0{fill:#174DA1;}
</style>
<path class="st0" d="M18.4,16.4l-1.7-1.8L16,15.3l0.9,1c-0.9,0-1.8,0.1-2.6,0.4c-0.5,0.2-1,0.6-1.3,1c-0.3,0.5-0.5,1.1-0.5,1.8h1
	c0-0.5,0.1-0.9,0.3-1.2c0.2-0.3,0.5-0.5,0.9-0.6c0.6-0.2,1.3-0.3,2.1-0.4L16,18.2l0.7,0.7l1.7-1.8l0.3-0.3L18.4,16.4z"/>
<path class="st0" d="M13,11.5L13,11.5l-9-0.1v1h7.3C11.9,12,12.4,11.7,13,11.5z"/>
<path class="st0" d="M9.8,14.4H4v1h5.3C9.5,15.1,9.6,14.7,9.8,14.4z"/>
<path id="path3_fill_1_" class="st0" d="M8.4,3.2c0.3,0,0.6,0.1,0.9,0.2C9.6,3.4,9.8,3.6,10,3.8L9.4,4.4C9.3,4.2,9.2,4.1,9,4
	C8.8,3.9,8.6,3.9,8.4,3.9v1.9l0,0C8.6,5.8,8.9,5.9,9.1,6C9.3,6,9.5,6.1,9.6,6.3C9.8,6.4,9.9,6.5,10,6.7c0.1,0.2,0.1,0.4,0.1,0.7
	c0,0.2,0,0.5-0.1,0.7C9.9,8.2,9.8,8.4,9.6,8.6C9.5,8.7,9.3,8.8,9.1,8.9C8.9,9,8.7,9,8.4,9v0.6H8V9C7.6,9,7.3,9,7,8.9
	C6.7,8.7,6.5,8.5,6.2,8.3l0.6-0.6C7,7.9,7.1,8.1,7.4,8.2C7.6,8.3,7.8,8.3,8,8.4v-2C7.8,6.3,7.6,6.3,7.4,6.2C7.2,6.1,7,6,6.9,5.9
	C6.7,5.7,6.6,5.6,6.5,5.4C6.4,5.2,6.4,5,6.4,4.8c0-0.2,0-0.4,0.1-0.6C6.6,4,6.7,3.8,6.9,3.7C7,3.5,7.2,3.4,7.4,3.3
	C7.6,3.3,7.8,3.2,8,3.2V2.6h0.4V3.2z M8,3.9C7.7,3.9,7.5,4,7.4,4.2C7.2,4.3,7.1,4.5,7.1,4.8c0,0.1,0,0.2,0.1,0.3
	c0,0.1,0.1,0.2,0.2,0.2c0.1,0.1,0.2,0.1,0.3,0.2c0.1,0,0.2,0.1,0.3,0.1V3.9z M8.4,8.4c0.1,0,0.3,0,0.4-0.1c0.1,0,0.2-0.1,0.3-0.2
	C9.2,8,9.3,7.9,9.3,7.8c0.1-0.1,0.1-0.2,0.1-0.4s0-0.3-0.1-0.4C9.2,7,9.2,6.9,9.1,6.8C9,6.7,8.9,6.7,8.8,6.6S8.5,6.5,8.4,6.5V8.4z"
	/>
<path class="st0" d="M9.1,18.5l-0.6,0.3L6.8,18l-0.4-0.2L6,18l-1.7,0.8L2.6,18l-0.4-0.2L1.7,18l-0.7,0.3V1.5l0.7,0.3l0.4,0.2
	l0.4-0.2l1.7-0.8L6,1.9l0.4,0.2l0.4-0.2l1.7-0.8l1.7,0.8l0.4,0.2l0.4-0.2l1.7-0.8l1.7,0.8l0.4,0.2l0.4-0.2L16,1.5V11
	c0.3,0,0.7,0.1,1,0.2V0l-2.1,1l-2.1-1l-2.1,1L8.5,0L6.4,1L4.3,0L2.2,1L0.1,0v19.9l2.1-1l2.1,1l2.1-1l2.1,1l0.8-0.4
	C9.2,19.2,9.2,18.9,9.1,18.5z"/>
<path class="st0" d="M15.5,13c2.5,0,4.5,2,4.5,4.5S18,22,15.5,22S11,20,11,17.5S13,13,15.5,13 M15.5,12c-3,0-5.5,2.5-5.5,5.5
	s2.5,5.5,5.5,5.5s5.5-2.5,5.5-5.5S18.5,12,15.5,12L15.5,12z"/>
</svg>
